<?xml version="1.0" encoding="UTF-8" standalone="no"?>
<svg
   xmlns:dc="http://purl.org/dc/elements/1.1/"
   xmlns:cc="http://creativecommons.org/ns#"
   xmlns:rdf="http://www.w3.org/1999/02/22-rdf-syntax-ns#"
   xmlns:svg="http://www.w3.org/2000/svg"
   xmlns="http://www.w3.org/2000/svg"
   xmlns:sodipodi="http://sodipodi.sourceforge.net/DTD/sodipodi-0.dtd"
   xmlns:inkscape="http://www.inkscape.org/namespaces/inkscape"
   version="1.1"
   width="512"
   height="512"
   viewBox="0 0 512 512"
   id="svg3763"
   sodipodi:docname="play-store-icon.svg"
   enable-background="new"
   inkscape:version="0.92.4 5da689c313, 2019-01-14"
   inkscape:export-filename="/home/vishnu/Projects/Android/NBAScores/play-store-assets/play-store-icon.png"
   inkscape:export-xdpi="96"
   inkscape:export-ydpi="96">
  <metadata
     id="metadata3769">
    <rdf:RDF>
      <cc:Work
         rdf:about="">
        <dc:format>image/svg+xml</dc:format>
        <dc:type
           rdf:resource="http://purl.org/dc/dcmitype/StillImage" />
        <dc:title></dc:title>
      </cc:Work>
    </rdf:RDF>
  </metadata>
  <defs
     id="defs3767" />
  <sodipodi:namedview
     pagecolor="#ffffff"
     bordercolor="#666666"
     borderopacity="1"
     objecttolerance="10"
     gridtolerance="10"
     guidetolerance="10"
     inkscape:pageopacity="0"
     inkscape:pageshadow="2"
     inkscape:window-width="1920"
     inkscape:window-height="1027"
     id="namedview3765"
     showgrid="false"
     inkscape:zoom="1.1145833"
     inkscape:cx="145.97307"
     inkscape:cy="210.48557"
     inkscape:window-x="0"
     inkscape:window-y="26"
     inkscape:window-maximized="1"
     inkscape:current-layer="layer1" />
  <g
     inkscape:groupmode="layer"
     id="layer1"
     inkscape:label="Background"
     style="display:inline">
    <rect
       style="opacity:1;fill:#403357;fill-opacity:1;stroke:none;stroke-width:7.20364952;stroke-linecap:butt;stroke-miterlimit:4;stroke-dasharray:none;stroke-dashoffset:0;stroke-opacity:1;paint-order:normal"
       id="rect4585"
       width="512"
       height="512"
       x="-1.3171747e-06"
       y="0" />
  </g>
  <g
     inkscape:groupmode="layer"
     id="layer2"
     inkscape:label="Foreground"
     style="display:inline;">
    <path
       d="m 82.12,303.31654 c 10.8,-3.95805 21.96,-5.93706 33.84,-5.93706 24.12,0 45.18,7.55626 63.18,22.66875 l -56.52,56.49199 C 103.54,354.95093 90.04,330.30315 82.12,303.31654 m 237.96,-86.8969 c 35.46,26.44687 73.8,32.92366 114.84,19.43035 0.54,3.77814 1.08,10.61474 1.08,20.15002 0,18.5308 -4.5,39.22054 -12.96,62.06921 -8.46,22.66875 -18.9,41.01966 -31.14,54.87279 L 277.96,259.41831 320.08,216.41964 M 197.86,339.47861 c 19.08,27.52635 23.04,57.57144 11.7,90.31521 -25.56,-7.37635 -48.42,-18.89064 -67.5,-34.72279 l 55.8,-55.59242 M 259.42,277.94911 373,391.83263 c -39.06,34.18305 -84.96,48.57591 -137.16,42.99868 3.78,-11.87411 5.76,-24.82768 5.76,-38.86072 0,-11.15447 -2.52,-24.28796 -7.56,-39.22055 -5.04,-14.9326 -10.98,-27.16653 -17.64,-36.70181 l 43.02,-42.09912 M 198.58,300.9777 C 181.84,286.0451 162.4,276.68974 140.44,272.37188 118.48,268.23394 97.419998,269.49331 77.08,276.32992 76.54,272.37188 76,265.53527 76,256.00001 c 0,-18.53081 4.5,-39.22055 12.96,-62.06922 8.459998,-22.66876 18.9,-41.01965 31.14,-54.87279 l 119.88,120.36031 -41.4,41.55939 m 121.5,-121.7996 c -24.12,-29.68527 -29.7,-62.06921 -16.74,-96.971925 11.16,2.878568 23.94,8.2759 38.34,16.55179 14.22,8.095995 25.92,16.191985 34.92,23.928155 l -56.52,56.49198 m 109.8,29.68528 c -10.8,3.77813 -21.96,5.75715 -33.84,5.75715 -19.62,0 -38.52,-5.75715 -56.52,-17.63126 l 55.62,-54.87278 c 15.84,19.79018 27.36,41.9192 34.74,66.74689 M 259.42,239.98795 139,120.16737 c 39.06,-34.183069 84.96,-48.57593 137.34,-42.998697 -3.96,11.874112 -5.94,24.827697 -5.94,38.860747 0,12.95358 2.88,27.52635 8.82,43.89823 5.94,16.19197 12.78,29.14554 21.78,38.68082 z"
       id="path3761"
       inkscape:connector-curvature="0"
       style="stroke-width:17.99553871;fill:#907cb6;fill-opacity:1" />
  </g>
</svg>
